<svg version="1.2" xmlns="http://www.w3.org/2000/svg" viewBox="0 0 40 40" width="40" height="40">
	<title>image</title>
	<style>
		.s0 { fill: #ffffff } 
		.s1 { fill: #ffc107 } 
		.s2 { fill: #ff3d00 } 
		.s3 { fill: #4caf50 } 
		.s4 { fill: #1976d2 } 
	</style>
	<path class="s0" d="m20 40c-11.1 0-20-8.9-20-20 0-11.1 8.9-20 20-20 11.1 0 20 8.9 20 20 0 11.1-8.9 20-20 20z"/>
	<path class="s1" d="m29.8 18h-0.8-9v4h5.7c-0.9 2.3-3.1 4-5.7 4-3.3 0-6-2.7-6-6 0-3.3 2.7-6 6-6 1.5 0 2.9 0.6 4 1.5l2.8-2.8c-1.8-1.7-4.2-2.7-6.8-2.7-5.5 0-10 4.5-10 10 0 5.5 4.5 10 10 10 5.5 0 10-4.5 10-10q0-1-0.2-2z"/>
	<path class="s2" d="m11.2 15.3l3.2 2.5c0.9-2.2 3.1-3.8 5.6-3.8 1.5 0 2.9 0.6 4 1.5l2.8-2.8c-1.8-1.7-4.2-2.7-6.8-2.7-3.8 0-7.2 2.2-8.8 5.3z"/>
	<path class="s3" d="m20 30c2.6 0 4.9-1 6.7-2.6l-3.1-2.6c-1 0.8-2.3 1.2-3.6 1.2-2.6 0-4.8-1.7-5.6-4l-3.3 2.5c1.7 3.3 5 5.5 8.9 5.5z"/>
	<path class="s4" d="m29.8 18h-0.8-9v4h5.7c-0.4 1.1-1.2 2.1-2.1 2.8l3.1 2.6c-0.2 0.2 3.3-2.4 3.3-7.4q0-1-0.2-2z"/>
</svg>