<svg version="1.2" xmlns="http://www.w3.org/2000/svg" viewBox="0 0 24 24" width="24" height="24">
	<title>image</title>
	<style>
		.s0 { fill: #18465f } 
	</style>
	<path fill-rule="evenodd" class="s0" d="m12 12q-1.7 0-2.8-1.2-1.2-1.1-1.2-2.8 0-1.7 1.2-2.8 1.1-1.2 2.8-1.2 1.7 0 2.8 1.2 1.2 1.1 1.2 2.8 0 1.7-1.2 2.8-1.1 1.2-2.8 1.2zm-8 8v-2.8q0-0.9 0.4-1.6 0.5-0.7 1.2-1 1.5-0.8 3.1-1.2 1.7-0.4 3.3-0.4 1.6 0 3.3 0.4 1.6 0.4 3.1 1.2 0.7 0.3 1.2 1 0.4 0.7 0.4 1.6v2.8zm2-2h12v-0.8q0-0.3-0.1-0.5-0.2-0.2-0.4-0.3-1.3-0.7-2.7-1.1-1.4-0.3-2.8-0.3-1.4 0-2.8 0.3-1.4 0.4-2.7 1.1-0.2 0.1-0.4 0.3-0.1 0.2-0.1 0.5zm6-8q0.8 0 1.4-0.6 0.6-0.6 0.6-1.4 0-0.8-0.6-1.4-0.6-0.6-1.4-0.6-0.8 0-1.4 0.6-0.6 0.6-0.6 1.4 0 0.8 0.6 1.4 0.6 0.6 1.4 0.6z"/>
</svg>