<svg version="1.2" xmlns="http://www.w3.org/2000/svg" viewBox="0 0 24 24" width="24" height="24">
	<title>image</title>
	<style>
		.s0 { fill: none;stroke: #18465f;stroke-linecap: round;stroke-linejoin: round;stroke-width: 2 } 
	</style>
	<path fill-rule="evenodd" class="s0" d="m5 4h4l2 5-2.5 1.5c1.1 2.2 2.8 3.9 5 5l1.5-2.5 5 2v4c0 0.5-0.2 1-0.6 1.4-0.4 0.4-0.9 0.6-1.4 0.6-3.9-0.2-7.6-1.9-10.3-4.7-2.8-2.7-4.5-6.4-4.7-10.3 0-0.5 0.2-1 0.6-1.4 0.4-0.4 0.9-0.6 1.4-0.6z"/>
	<path fill-rule="evenodd" class="s0" d="m15 7c0.5 0 1 0.2 1.4 0.6 0.4 0.4 0.6 0.9 0.6 1.4"/>
	<path fill-rule="evenodd" class="s0" d="m15 3c1.6 0 3.1 0.6 4.2 1.8 1.2 1.1 1.8 2.6 1.8 4.2"/>
</svg>