<?xml version="1.0" encoding="UTF-8"?>
<svg version="1.1" xmlns="http://www.w3.org/2000/svg" width="96" height="96">
<path d="M0 0 C4.95 0 9.9 0 15 0 C15 1.98 15 3.96 15 6 C14.01 6 13.02 6 12 6 C11.68600125 9.90672861 11.82371392 13.24456205 13 17 C16.31028764 20.55187695 20.05212961 23.20332081 24 26 C24 26.33 24 26.66 24 27 C20.04 27 16.08 27 12 27 C12 27.99 12 28.98 12 30 C10.35451172 30.14695312 10.35451172 30.14695312 8.67578125 30.296875 C7.22126122 30.447019 5.76683882 30.59811083 4.3125 30.75 C3.59126953 30.811875 2.87003906 30.87375 2.12695312 30.9375 C-2.68027827 31.46431988 -5.48760436 32.42773398 -9 36 C-10.60210099 39.43307355 -11.00413221 41.76446431 -10.9375 45.5625 C-11 49 -11 49 -12.625 51.625 C-14.32298691 53.94835406 -14.32298691 53.94835406 -13.4375 56.6875 C-12.21911662 59.10700334 -12.21911662 59.10700334 -10.0625 59.9375 C-6.97981079 61.52555202 -6.36585614 63.89578151 -5 67 C-4.608125 67.78375 -4.21625 68.5675 -3.8125 69.375 C-3.544375 69.91125 -3.27625 70.4475 -3 71 C-5.69265361 72.3463268 -7.80114249 72.12962636 -10.8125 72.1328125 C-11.97007813 72.13410156 -13.12765625 72.13539062 -14.3203125 72.13671875 C-15.53460938 72.13285156 -16.74890625 72.12898438 -18 72.125 C-19.82144531 72.13080078 -19.82144531 72.13080078 -21.6796875 72.13671875 C-22.83726563 72.13542969 -23.99484375 72.13414063 -25.1875 72.1328125 C-26.25355469 72.13168457 -27.31960937 72.13055664 -28.41796875 72.12939453 C-31 72 -31 72 -33 71 C-32.33333333 69.66666667 -31.66666667 68.33333333 -31 67 C-30.566875 65.989375 -30.13375 64.97875 -29.6875 63.9375 C-27.79539002 60.64382707 -26.21174158 59.85942934 -23 58 C-21.92357291 56.11149645 -21.92357291 56.11149645 -22 54 C-22.31324219 53.40703125 -22.62648437 52.8140625 -22.94921875 52.203125 C-24.16622587 49.65148182 -24.41722258 47.48837659 -24.75 44.6875 C-25.58458139 40.16382697 -26.4641178 36.69065343 -29.671875 33.3046875 C-35.10023499 30.26261999 -41.90374605 30.35477012 -48 30 C-48 29.01 -48 28.02 -48 27 C-51.96 27 -55.92 27 -60 27 C-56.57182565 23.48424456 -53.03756583 20.26126483 -49.25 17.125 C-48.73211914 16.69590332 -48.21423828 16.26680664 -47.68066406 15.82470703 C-43.19264386 12.1224356 -38.62593178 8.52785707 -34 5 C-33.34 5.33 -32.68 5.66 -32 6 C-31.731875 7.0725 -31.46375 8.145 -31.1875 9.25 C-29.85679348 13.45223112 -28.31923899 15.17864686 -25 18 C-21.31064308 19.84467846 -17.03564658 19.35009552 -13 19 C-8.7327168 17.27492807 -6.99902002 15.09323146 -5 11 C-4.28856912 9.01548229 -3.61008664 7.01797888 -3 5 C-0.525 6.485 -0.525 6.485 2 8 C2.33 7.34 2.66 6.68 3 6 C2.01 6 1.02 6 0 6 C0 4.02 0 2.04 0 0 Z " fill="#63C8F0" transform="translate(66,12)"/>
<path d="M0 0 C0.91458984 0.00580078 1.82917969 0.01160156 2.77148438 0.01757812 C9.51703477 0.14203477 9.51703477 0.14203477 11.8125 2.4375 C11.8125 3.7575 11.8125 5.0775 11.8125 6.4375 C12.8025 6.4375 13.7925 6.4375 14.8125 6.4375 C14.8125 10.3975 14.8125 14.3575 14.8125 18.4375 C15.8025 18.4375 16.7925 18.4375 17.8125 18.4375 C17.8125 20.7475 17.8125 23.0575 17.8125 25.4375 C15.8325 26.0975 13.8525 26.7575 11.8125 27.4375 C11.73 28.18 11.6475 28.9225 11.5625 29.6875 C10.66530293 32.9772226 9.26279221 34.14035105 6.8125 36.4375 C6.4825 37.4275 6.1525 38.4175 5.8125 39.4375 C6.493125 39.52 7.17375 39.6025 7.875 39.6875 C11.6871907 40.66082528 14.45320329 42.39557455 17.8125 44.4375 C17.8125 45.7575 17.8125 47.0775 17.8125 48.4375 C5.9325 48.4375 -5.9475 48.4375 -18.1875 48.4375 C-17.1875 43.4375 -17.1875 43.4375 -15.4453125 42.07421875 C-14.74148437 41.76097656 -14.03765625 41.44773438 -13.3125 41.125 C-12.26449219 40.63580078 -12.26449219 40.63580078 -11.1953125 40.13671875 C-9.1875 39.4375 -9.1875 39.4375 -6.1875 39.4375 C-8.18590027 35.89161365 -8.18590027 35.89161365 -10.875 32.875 C-12.1875 31.4375 -12.1875 31.4375 -12.1875 27.4375 C-14.1675 26.7775 -16.1475 26.1175 -18.1875 25.4375 C-18.1875 23.1275 -18.1875 20.8175 -18.1875 18.4375 C-17.1975 18.4375 -16.2075 18.4375 -15.1875 18.4375 C-15.27451172 17.11685547 -15.27451172 17.11685547 -15.36328125 15.76953125 C-15.40839844 14.60808594 -15.45351563 13.44664063 -15.5 12.25 C-15.55800781 11.10144531 -15.61601563 9.95289063 -15.67578125 8.76953125 C-15.1875 5.4375 -15.1875 5.4375 -13.3046875 2.5390625 C-8.86334108 -0.4552287 -5.23089116 -0.19041788 0 0 Z " fill="#EEC59A" transform="translate(72.1875,44.5625)"/>
<path d="M0 0 C0.91458984 0.00580078 1.82917969 0.01160156 2.77148438 0.01757812 C9.51703477 0.14203477 9.51703477 0.14203477 11.8125 2.4375 C11.8125 3.7575 11.8125 5.0775 11.8125 6.4375 C12.8025 6.4375 13.7925 6.4375 14.8125 6.4375 C14.8125 10.3975 14.8125 14.3575 14.8125 18.4375 C15.8025 18.4375 16.7925 18.4375 17.8125 18.4375 C17.8125 20.7475 17.8125 23.0575 17.8125 25.4375 C15.8325 26.0975 13.8525 26.7575 11.8125 27.4375 C11.73 28.18 11.6475 28.9225 11.5625 29.6875 C10.66530293 32.9772226 9.26279221 34.14035105 6.8125 36.4375 C6.4825 37.4275 6.1525 38.4175 5.8125 39.4375 C6.493125 39.52 7.17375 39.6025 7.875 39.6875 C11.6871907 40.66082528 14.45320329 42.39557455 17.8125 44.4375 C17.8125 45.7575 17.8125 47.0775 17.8125 48.4375 C5.9325 48.4375 -5.9475 48.4375 -18.1875 48.4375 C-17.1875 43.4375 -17.1875 43.4375 -15.4453125 42.07421875 C-14.74148437 41.76097656 -14.03765625 41.44773438 -13.3125 41.125 C-12.26449219 40.63580078 -12.26449219 40.63580078 -11.1953125 40.13671875 C-9.1875 39.4375 -9.1875 39.4375 -6.1875 39.4375 C-8.18590027 35.89161365 -8.18590027 35.89161365 -10.875 32.875 C-12.1875 31.4375 -12.1875 31.4375 -12.1875 27.4375 C-14.1675 26.7775 -16.1475 26.1175 -18.1875 25.4375 C-18.1875 23.1275 -18.1875 20.8175 -18.1875 18.4375 C-17.1975 18.4375 -16.2075 18.4375 -15.1875 18.4375 C-15.27451172 17.11685547 -15.27451172 17.11685547 -15.36328125 15.76953125 C-15.40839844 14.60808594 -15.45351562 13.44664063 -15.5 12.25 C-15.55800781 11.10144531 -15.61601562 9.95289063 -15.67578125 8.76953125 C-15.1875 5.4375 -15.1875 5.4375 -13.3046875 2.5390625 C-8.86334108 -0.4552287 -5.23089116 -0.19041788 0 0 Z " fill="#EEC59A" transform="translate(24.1875,44.5625)"/>
<path d="M0 0 C19.8 0 39.6 0 60 0 C60 0.99 60 1.98 60 3 C58.35451172 3.14695313 58.35451172 3.14695313 56.67578125 3.296875 C55.22126122 3.447019 53.76683882 3.59811083 52.3125 3.75 C51.2306543 3.8428125 51.2306543 3.8428125 50.12695312 3.9375 C45.31972173 4.46431988 42.51239564 5.42773398 39 9 C37.39789901 12.43307355 36.99586779 14.76446431 37.0625 18.5625 C37 22 37 22 35.375 24.625 C33.67701309 26.94835406 33.67701309 26.94835406 34.5625 29.6875 C35.78088338 32.10700334 35.78088338 32.10700334 37.9375 32.9375 C41.02018921 34.52555202 41.63414386 36.89578151 43 40 C43.391875 40.78375 43.78375 41.5675 44.1875 42.375 C44.455625 42.91125 44.72375 43.4475 45 44 C42.30734639 45.3463268 40.19885751 45.12962636 37.1875 45.1328125 C36.02992187 45.13410156 34.87234375 45.13539062 33.6796875 45.13671875 C32.46539062 45.13285156 31.25109375 45.12898438 30 45.125 C28.17855469 45.13080078 28.17855469 45.13080078 26.3203125 45.13671875 C24.58394531 45.13478516 24.58394531 45.13478516 22.8125 45.1328125 C21.74644531 45.13168457 20.68039063 45.13055664 19.58203125 45.12939453 C17 45 17 45 15 44 C15.66666667 42.66666667 16.33333333 41.33333333 17 40 C17.433125 38.989375 17.86625 37.97875 18.3125 36.9375 C20.20460998 33.64382707 21.78825842 32.85942934 25 31 C26.07642709 29.11149645 26.07642709 29.11149645 26 27 C25.68675781 26.40703125 25.37351562 25.8140625 25.05078125 25.203125 C23.83377413 22.65148182 23.58277742 20.48837659 23.25 17.6875 C22.41541861 13.16382697 21.5358822 9.69065343 18.328125 6.3046875 C12.89976501 3.26261999 6.09625395 3.35477012 0 3 C0 2.01 0 1.02 0 0 Z " fill="#EFEFEF" transform="translate(18,39)"/>
<path d="M0 0 C0.91458984 0.00580078 1.82917969 0.01160156 2.77148438 0.01757812 C9.51703477 0.14203477 9.51703477 0.14203477 11.8125 2.4375 C11.8125 3.7575 11.8125 5.0775 11.8125 6.4375 C12.8025 6.4375 13.7925 6.4375 14.8125 6.4375 C14.8125 11.3875 14.8125 16.3375 14.8125 21.4375 C13.4925 21.1075 12.1725 20.7775 10.8125 20.4375 C9.0625 16.875 9.0625 16.875 7.8125 13.4375 C7.049375 14.076875 6.28625 14.71625 5.5 15.375 C1.14095362 18.72031466 -2.60868981 18.56392347 -7.875 18.5 C-8.57689453 18.49548828 -9.27878906 18.49097656 -10.00195312 18.48632812 C-11.73050538 18.47456927 -13.45901365 18.45663454 -15.1875 18.4375 C-15.3232683 16.37683896 -15.41983903 14.31357243 -15.5 12.25 C-15.55800781 11.10144531 -15.61601563 9.95289063 -15.67578125 8.76953125 C-15.1875 5.4375 -15.1875 5.4375 -13.3046875 2.5390625 C-8.86334108 -0.4552287 -5.23089116 -0.19041788 0 0 Z " fill="#F9B300" transform="translate(72.1875,44.5625)"/>
<path d="M0 0 C0.91458984 0.00580078 1.82917969 0.01160156 2.77148438 0.01757812 C9.51703477 0.14203477 9.51703477 0.14203477 11.8125 2.4375 C11.8125 3.7575 11.8125 5.0775 11.8125 6.4375 C12.8025 6.4375 13.7925 6.4375 14.8125 6.4375 C14.8125 11.3875 14.8125 16.3375 14.8125 21.4375 C13.4925 21.1075 12.1725 20.7775 10.8125 20.4375 C9.0625 16.875 9.0625 16.875 7.8125 13.4375 C7.049375 14.076875 6.28625 14.71625 5.5 15.375 C1.14095362 18.72031466 -2.60868981 18.56392347 -7.875 18.5 C-8.57689453 18.49548828 -9.27878906 18.49097656 -10.00195312 18.48632812 C-11.73050538 18.47456927 -13.45901365 18.45663454 -15.1875 18.4375 C-15.3232683 16.37683896 -15.41983903 14.31357243 -15.5 12.25 C-15.55800781 11.10144531 -15.61601562 9.95289063 -15.67578125 8.76953125 C-15.1875 5.4375 -15.1875 5.4375 -13.3046875 2.5390625 C-8.86334108 -0.4552287 -5.23089116 -0.19041788 0 0 Z " fill="#F9B300" transform="translate(24.1875,44.5625)"/>
<path d="M0 0 C3.12578143 1.6720747 5.39281175 3.7856235 7 7 C7.51512617 11.09157355 7.94367269 15.23589546 5.953125 18.95703125 C3.55501226 21.85592636 1.60351712 23.79811835 -2.171875 24.2734375 C-9.98876369 24.58137554 -9.98876369 24.58137554 -13.5625 21.625 C-17.3057723 17.59378368 -17.39037018 14.90519941 -17.359375 9.55078125 C-16.78039966 5.44131496 -15.00085071 3.78650423 -12 1 C-8.27533151 -0.86233425 -4.05504687 -0.57130829 0 0 Z " fill="#3DC8B4" transform="translate(53,6)"/>
<path d="M0 0 C1.8125 1.5625 1.8125 1.5625 3 3 C5.46800047 1.84826645 7.04783565 0.95216435 9 -1 C14.22363541 -0.75704021 17.66544943 1.31257865 22 4 C22 5.32 22 6.64 22 8 C10.12 8 -1.76 8 -14 8 C-13 3 -13 3 -11.328125 1.6015625 C-4.14225941 -1.77525403 -4.14225941 -1.77525403 0 0 Z " fill="#3EC6B2" transform="translate(68,85)"/>
<path d="M0 0 C1.8125 1.5625 1.8125 1.5625 3 3 C5.46800047 1.84826645 7.04783565 0.95216435 9 -1 C14.22363541 -0.75704021 17.66544943 1.31257865 22 4 C22 5.32 22 6.64 22 8 C10.12 8 -1.76 8 -14 8 C-13 3 -13 3 -11.328125 1.6015625 C-4.14225941 -1.77525403 -4.14225941 -1.77525403 0 0 Z " fill="#F86550" transform="translate(20,85)"/>
<path d="M0 0 C9.57 0 19.14 0 29 0 C29 0.99 29 1.98 29 3 C27.35451172 3.14695313 27.35451172 3.14695313 25.67578125 3.296875 C24.22126122 3.447019 22.76683882 3.59811083 21.3125 3.75 C20.2306543 3.8428125 20.2306543 3.8428125 19.12695312 3.9375 C14.31320485 4.46503406 11.54132032 5.45190852 8 9 C7.67 9.66 7.34 10.32 7 11 C5 11 5 11 2.375 8.875 C0 6 0 6 0 0 Z " fill="#F0EFEF" transform="translate(49,39)"/>
<path d="M0 0 C0.66 0.33 1.32 0.66 2 1 C1.50324294 5.02104124 0.73374291 6.73551599 -2.45703125 9.2265625 C-3.15763672 9.7834375 -3.85824219 10.3403125 -4.58007812 10.9140625 C-5.31677734 11.47867187 -6.05347656 12.04328125 -6.8125 12.625 C-7.90014648 13.48351562 -7.90014648 13.48351562 -9.00976562 14.359375 C-10.99532851 15.92166602 -12.99119553 17.4677433 -15 19 C-15.66217529 19.55220215 -16.32435059 20.1044043 -17.0065918 20.67333984 C-19.95335589 22.63448082 -22.55504624 22.19874733 -26 22 C-22.57182565 18.48424456 -19.03756583 15.26126483 -15.25 12.125 C-14.73211914 11.69590332 -14.21423828 11.26680664 -13.68066406 10.82470703 C-9.19264386 7.1224356 -4.62593178 3.52785707 0 0 Z " fill="#48AED6" transform="translate(32,17)"/>
<path d="M0 0 C-0.556875 0.20625 -1.11375 0.4125 -1.6875 0.625 C-4.88961524 2.52896041 -7.19074253 4.76613035 -9 8 C-9.89290657 11.55745316 -9.81777489 14.53830787 -8.0078125 17.7734375 C-5.75196807 20.645786 -3.43372981 22.72824822 0 24 C-2.91916538 24.34751969 -5.13195476 24.53280018 -7.69921875 22.95703125 C-10.69004338 20.48760946 -12.77985357 18.74859165 -13.2734375 14.828125 C-13.58137554 7.01123631 -13.58137554 7.01123631 -10.625 3.4375 C-6.84794567 -0.06976474 -5.06321848 -0.11006997 0 0 Z " fill="#22AF9B" transform="translate(49,6)"/>
<path d="M0 0 C0.66 0 1.32 0 2 0 C2.0825 0.928125 2.165 1.85625 2.25 2.8125 C3.12240217 6.52020922 3.9741482 6.95022943 7 9 C7 9.99 7 10.98 7 12 C6.01 12 5.02 12 4 12 C3.67 12.99 3.34 13.98 3 15 C1.35 14.67 -0.3 14.34 -2 14 C-2 13.34 -2 12.68 -2 12 C-2.99 12 -3.98 12 -5 12 C-4.75 10.125 -4.75 10.125 -4 8 C-1.9375 6.75 -1.9375 6.75 0 6 C0 4.02 0 2.04 0 0 Z " fill="#E77C53" transform="translate(47,39)"/>
<path d="M0 0 C2.97 0 5.94 0 9 0 C9 3.63 9 7.26 9 11 C7.32111559 10.02065076 5.65661761 9.01656081 4 8 C2.8553125 7.319375 2.8553125 7.319375 1.6875 6.625 C0 5 0 5 -0.25 2.3125 C-0.1675 1.549375 -0.085 0.78625 0 0 Z " fill="#46AAD2" transform="translate(69,18)"/>
<path d="M0 0 C0.99 0.66 1.98 1.32 3 2 C1.61811547 5.21043882 0.07578097 7.04936365 -2.625 9.25 C-3.25664063 9.77078125 -3.88828125 10.2915625 -4.5390625 10.828125 C-5.02117188 11.21484375 -5.50328125 11.6015625 -6 12 C-7.65 10.35 -9.3 8.7 -11 7 C-10.34 5.68 -9.68 4.36 -9 3 C-7.68 3.66 -6.36 4.32 -5 5 C-3.35 3.35 -1.7 1.7 0 0 Z " fill="#E6EEEC" transform="translate(52,12)"/>
<path d="M0 0 C0.99 0 1.98 0 3 0 C3 4.95 3 9.9 3 15 C-1 14 -1 14 -3 11 C-2.70187643 6.90080096 -2.12632393 3.54387321 0 0 Z " fill="#DC9703" transform="translate(84,51)"/>
<path d="M0 0 C0.99 0 1.98 0 3 0 C3 4.95 3 9.9 3 15 C-1 14 -1 14 -3 11 C-2.70187643 6.90080096 -2.12632393 3.54387321 0 0 Z " fill="#DC9703" transform="translate(36,51)"/>
<path d="M0 0 C3.96 0 7.92 0 12 0 C10.95206337 4.19174654 10.08236365 5.21592961 7 8 C4.13792848 6.71700242 1.9754912 5.469364 0 3 C0 2.01 0 1.02 0 0 Z " fill="#D2AA82" transform="translate(66,81)"/>
<path d="M0 0 C3.96 0 7.92 0 12 0 C10.95206337 4.19174654 10.08236365 5.21592961 7 8 C4.13792848 6.71700242 1.9754912 5.469364 0 3 C0 2.01 0 1.02 0 0 Z " fill="#D2AA82" transform="translate(18,81)"/>
<path d="M0 0 C0 0.99 0 1.98 0 3 C-0.969375 3.433125 -1.93875 3.86625 -2.9375 4.3125 C-6.27731765 5.7014861 -6.27731765 5.7014861 -7 9 C-8.98 9 -10.96 9 -13 9 C-13 6.75 -13 6.75 -12 4 C-8.07706062 1.19020589 -4.83245843 0 0 0 Z " fill="#DF4A35" transform="translate(19,84)"/>
<path d="M0 0 C-1.26041675 3.78125025 -2.68870545 4.01322327 -6 6 C-6.33 6.99 -6.66 7.98 -7 9 C-8.98 9 -10.96 9 -13 9 C-13 6.75 -13 6.75 -12 4 C-8.07706062 1.19020589 -4.83245843 0 0 0 Z " fill="#20AD98" transform="translate(67,84)"/>
<path d="M0 0 C2.64 0 5.28 0 8 0 C8 0.66 8 1.32 8 2 C6.68 2 5.36 2 4 2 C4 2.66 4 3.32 4 4 C3.01 4 2.02 4 1 4 C0.67 2.68 0.34 1.36 0 0 Z " fill="#CB8E2D" transform="translate(74,65)"/>
<path d="M0 0 C2.64 0 5.28 0 8 0 C7.67 1.32 7.34 2.64 7 4 C6.01 4 5.02 4 4 4 C4 3.34 4 2.68 4 2 C2.68 2 1.36 2 0 2 C0 1.34 0 0.68 0 0 Z " fill="#CB8E2D" transform="translate(62,65)"/>
<path d="M0 0 C2.64 0 5.28 0 8 0 C8 0.66 8 1.32 8 2 C6.68 2 5.36 2 4 2 C4 2.66 4 3.32 4 4 C3.01 4 2.02 4 1 4 C0.67 2.68 0.34 1.36 0 0 Z " fill="#CB8E2D" transform="translate(26,65)"/>
<path d="M0 0 C2.64 0 5.28 0 8 0 C7.67 1.32 7.34 2.64 7 4 C6.01 4 5.02 4 4 4 C4 3.34 4 2.68 4 2 C2.68 2 1.36 2 0 2 C0 1.34 0 0.68 0 0 Z " fill="#CB8E2D" transform="translate(14,65)"/>
<path d="M0 0 C1.98 0 3.96 0 6 0 C6 0.99 6 1.98 6 3 C4.02 3 2.04 3 0 3 C0 2.01 0 1.02 0 0 Z " fill="#D2D2D2" transform="translate(18,39)"/>
</svg>
